<?xml version="1.0"?>
<svg xmlns="http://www.w3.org/2000/svg" id="icons" enable-background="new 0 0 64 64" height="512px" viewBox="0 0 64 64" width="512px" class=""><g><path d="m63 42.5v-34c0-.552-.447-1-1-1h-8v-1h2c.553 0 1-.448 1-1s-.447-1-1-1h-6c-.553 0-1 .448-1 1s.447 1 1 1h2v1h-12v-1h2c.553 0 1-.448 1-1s-.447-1-1-1h-6c-.553 0-1 .448-1 1s.447 1 1 1h2v1h-12v-1h2c.553 0 1-.448 1-1s-.447-1-1-1h-6c-.553 0-1 .448-1 1s.447 1 1 1h2v1h-12v-1h2c.553 0 1-.448 1-1s-.447-1-1-1h-6c-.553 0-1 .448-1 1s.447 1 1 1h2v1h-8c-.553 0-1 .448-1 1v34c-.553 0-1 .447-1 1s.447 1 1 1h27v14c0 .553.447 1 1 1s1-.447 1-1v-14h4v14c0 .553.447 1 1 1s1-.447 1-1v-2c.553 0 1-.447 1-1s-.447-1-1-1v-2c.553 0 1-.447 1-1s-.447-1-1-1v-2c.553 0 1-.447 1-1s-.447-1-1-1v-2h27c.553 0 1-.447 1-1s-.447-1-1-1zm-60-33h58v33h-58z" data-original="#000000" class="active-path" data-old_color="#000000" fill="#323232"/><path d="m38.001 21.5h18c.553 0 1-.448 1-1s-.447-1-1-1h-18c-.553 0-1 .448-1 1s.447 1 1 1z" data-original="#000000" class="active-path" data-old_color="#000000" fill="#323232"/><path d="m38.001 25.5h18c.553 0 1-.448 1-1s-.447-1-1-1h-18c-.553 0-1 .448-1 1s.447 1 1 1z" data-original="#000000" class="active-path" data-old_color="#000000" fill="#323232"/><path d="m38.001 29.5h18c.553 0 1-.448 1-1s-.447-1-1-1h-18c-.553 0-1 .448-1 1s.447 1 1 1z" data-original="#000000" class="active-path" data-old_color="#000000" fill="#323232"/><path d="m38.001 33.498h9c.553 0 1-.447 1-1 0-.552-.447-1-1-1h-9c-.553 0-1 .448-1 1 0 .553.447 1 1 1z" data-original="#000000" class="active-path" data-old_color="#000000" fill="#323232"/><path d="m10.008 21.498c1.654 0 3-1.346 3-3s-1.346-3-3-3-3 1.346-3 3 1.346 3 3 3zm0-4c.552 0 1 .449 1 1s-.448 1-1 1-1-.449-1-1 .448-1 1-1z" data-original="#000000" class="active-path" data-old_color="#000000" fill="#323232"/><path d="m32.006 35.514c.04 0 .073-.018.112-.022.069-.008.138-.019.205-.042.056-.019.105-.043.156-.071.022-.012.046-.017.067-.03s.03-.034.05-.048c.069-.053.13-.11.185-.18.03-.039.057-.078.082-.121.035-.063.063-.128.085-.198.019-.062.03-.121.037-.186.004-.035.021-.065.021-.102 0-.029-.014-.054-.017-.082-.005-.071-.021-.139-.042-.209-.018-.058-.037-.111-.064-.165-.016-.029-.018-.063-.036-.092l-9-13.983c-.002-.004-.007-.005-.009-.009-.037-.057-.094-.099-.143-.147-.047-.045-.086-.1-.139-.134-.004-.003-.006-.007-.01-.01-.045-.029-.096-.035-.144-.056-.067-.03-.132-.066-.204-.08-.069-.014-.138-.006-.208-.004-.059 0-.116-.008-.175.003-.079.016-.15.053-.224.087-.042.02-.088.024-.128.05-.004.002-.006.007-.01.009-.053.035-.091.088-.137.133-.05.049-.107.091-.145.148-.002.003-.007.005-.009.009l-4.684 7.276-2.137-3.288c-.002-.003-.005-.004-.007-.007-.034-.052-.088-.09-.133-.135-.049-.05-.091-.108-.148-.146-.002-.001-.003-.004-.006-.006-.039-.025-.083-.03-.124-.049-.075-.035-.147-.075-.229-.091-.064-.013-.128-.003-.192-.003s-.128-.009-.191.003c-.079.016-.149.054-.223.088-.043.02-.09.025-.131.052-.003.001-.004.004-.007.006-.054.036-.093.091-.14.138-.048.047-.104.088-.141.143-.002.003-.005.004-.007.007l-6.5 9.998c-.017.025-.018.054-.031.08-.032.059-.054.119-.073.184-.02.066-.034.131-.04.198-.002.029-.017.054-.017.083 0 .035.017.064.02.099.008.068.02.133.041.199.02.062.043.117.073.174.029.055.063.104.104.153.044.054.092.1.146.144.027.021.043.051.072.07.033.021.069.03.104.048.031.016.062.031.096.044.113.041.229.069.345.069h.001 24.003zm-13.707-5.829c.012-.017.021-.034.032-.051l4.675-7.263 7.172 11.143h-14.344zm-4.843 3.829h-3.606l4.656-7.163 1.789 2.752z" data-original="#000000" class="active-path" data-old_color="#000000" fill="#323232"/></g> </svg>
