<?xml version="1.0"?>
<svg xmlns="http://www.w3.org/2000/svg" xmlns:xlink="http://www.w3.org/1999/xlink" version="1.1" id="Capa_1" x="0px" y="0px" viewBox="0 0 512.001 512.001" style="enable-background:new 0 0 512.001 512.001;" xml:space="preserve" width="512px" height="512px" class=""><g><g>
	<g>
		<path d="M482.001,31h-70.003c0-5.522-4.477-10-10-10s-10,4.478-10,10H266c0-5.522-4.477-10-10-10s-10,4.478-10,10h-55.998    c-5.523,0-10,4.478-10,10s4.477,10,10,10H246v20h-10c-5.523,0-10,4.478-10,10s4.477,10,10,10h40c5.523,0,10-4.478,10-10    s-4.477-10-10-10h-10V51h125.998v20h-10c-5.523,0-10,4.478-10,10s4.477,10,10,10h40c5.523,0,10-4.478,10-10s-4.477-10-10-10h-10    V51h70.003c5.514,0,10,4.486,10,10v270H462c-5.523,0-10,4.478-10,10s4.477,10,10,10h30.001v20H20v-20h362c5.523,0,10-4.478,10-10    s-4.477-10-10-10H20V61c0-5.514,4.486-10,10-10h70.003v20h-10c-5.523,0-10,4.478-10,10s4.477,10,10,10h40c5.523,0,10-4.478,10-10    s-4.477-10-10-10h-10V31c0-5.522-4.477-10-10-10s-10,4.478-10,10H30C13.458,31,0,44.458,0,61v320c0,5.522,4.477,10,10,10h196v90    c0,5.522,4.477,10,10,10s10-4.478,10-10v-90h60v90c0,5.522,4.477,10,10,10s10-4.478,10-10v-90h196c5.523,0,10-4.478,10-10V61    C512.001,44.458,498.543,31,482.001,31z" data-original="#000000" class="active-path" data-old_color="#000000" fill="#323232"/>
		<path d="M150.006,51c5.523,0,10-4.478,10-10s-4.477-10-10-10h-0.007c-5.523,0-9.996,4.478-9.996,10S144.483,51,150.006,51z" data-original="#000000" class="active-path" data-old_color="#000000" fill="#323232"/>
		<path d="M432.003,341c0-5.522-4.477-10-10-10h-0.007c-5.523,0-9.996,4.478-9.996,10s4.48,10,10.003,10    S432.003,346.523,432.003,341z" data-original="#000000" class="active-path" data-old_color="#000000" fill="#323232"/>
		<path d="M216,271c1.842,0,3.682-0.509,5.3-1.52l80-50.001c2.924-1.827,4.7-5.031,4.7-8.479s-1.776-6.652-4.7-8.48l-80-50    c-3.082-1.926-6.968-2.03-10.147-0.266c-3.18,1.762-5.152,5.11-5.152,8.746v100c0,3.635,1.973,6.984,5.152,8.746    C212.663,270.584,214.333,271,216,271z M226,179.043L277.133,211L226,242.958V179.043z" data-original="#000000" class="active-path" data-old_color="#000000" fill="#323232"/>
	</g>
</g></g> </svg>
