<?xml version="1.0"?>
<svg xmlns="http://www.w3.org/2000/svg" height="512px" viewBox="-106 -21 682 682.66669" width="512px"><g><path d="m5.335938 618.667969c-5.894532 0-10.667969 4.773437-10.667969 10.664062 0 5.894531 4.773437 10.667969 10.667969 10.667969h447.996093c5.890625 0 10.664063-4.773438 10.664063-10.667969 0-5.890625-4.773438-10.664062-10.664063-10.664062h-81.90625c12.96875-49.492188 48.820313-220.597657-29.101562-367.671875-6.6875-12.382813-14.082031-24.371094-22.15625-35.902344 5.734375-4.210938 10.386719-9.722656 13.582031-16.074219l4.074219-8.140625c3.308593-6.613281 2.957031-14.46875-.929688-20.761718-3.886719-6.289063-10.757812-10.117188-18.15625-10.117188h-45.53125c-31.800781-29.835938-68.234375-54.300781-107.871093-72.460938v-76.871093c0-5.894531-4.78125-10.667969-10.667969-10.667969-5.890625 0-10.671875 4.773438-10.671875 10.667969v67.605469c-1.945313-.804688-3.816406-1.667969-5.800782-2.433594-.316406-.160156-.691406-.136719-1.0625-.269532-.765624-.304687-1.5625-.515624-2.382812-.625-.597656-.09375-1.207031-.132812-1.8125-.117187-1.246094.214844-2.488281.429687-3.730469.648437-.269531.117188-.484375.320313-.746093.453126-.269532.125-.492188.28125-.738282.441406-.9375.582031-1.777344 1.300781-2.496094 2.136718-.097656.105469-.234374.160157-.332031.277344-.097656.117188 0 .125-.085937.179688-.804688 1.066406-1.40625 2.269531-1.769532 3.554687v.273438c-.234374.832031-.359374 1.679687-.375 2.539062v115.703125l-38.398437-5.484375c-11.238281-1.605469-22.484375 2.90625-29.496094 11.839844s-8.726562 20.929687-4.496093 31.46875c4.226562 10.539063 13.757812 18.019531 25.003906 19.625l47.386718 6.765625v353.417969zm138.660156-505.25c11.425781 16.015625 21.105468 33.203125 28.878906 51.273437l-28.878906 11.554688zm152.3125 153.246093c4.921875 14 9.121094 28.242188 12.585937 42.667969h-22.613281c-2.042969-14.453125-4.597656-28.722656-7.761719-42.667969zm-22.066406 352.003907c1.414062-7.746094 3.28125-18.550781 5.332031-32.003907h33.148437c-2.515625 14.191407-4.871094 25.1875-6.394531 32.003907zm39.539062-288c1.421875 7.035156 2.6875 14.152343 3.796875 21.332031h-26.667969c-.546875-7.113281-1.195312-14.222656-1.953125-21.332031zm7.46875 191.996093h-33.71875c.679688-6.921874 1.34375-13.992187 1.941406-21.332031h33.503906c-.457031 6.71875-1.035156 13.769531-1.761718 21.332031zm-5.144531 42.667969h-33.496094c.898437-6.734375 1.785156-13.84375 2.65625-21.332031h33.632813c-.890626 7.308594-1.835938 14.421875-2.824219 21.332031zm7.917969-149.332031c.316406 7.183594.535156 14.292969.648437 21.335938h-31.832031c.171875-7.058594.269531-14.167969.289062-21.335938zm-33.039063 64c.433594-6.992188.8125-14.101562 1.132813-21.332031h32.574218c-.070312 7.109375-.269531 14.222656-.597656 21.332031zm1.964844-85.332031c-.148438-7.085938-.417969-14.199219-.757813-21.332031h28.300782c.808593 7.167968 1.519531 14.277343 2.132812 21.332031zm-98.132813-234.667969c-6.777344-16.007812-14.851562-31.429688-24.148437-46.113281 25.082031 12.753906 48.6875 28.21875 70.398437 46.113281zm-50.820312 53.335938v-14.113282l36.953125-14.785156c4.832031 12.796875 9.539062 27.125 13.933593 43.179688l-50.886718 22.632812zm0 60.253906 56.207031-25c8.070313 35.566406 13.53125 71.675781 16.328125 108.042968l-72.535156 32.28125zm0 138.667968 74.179687-32.996093c1.847657 31.222656 2.460938 65.410156 1.324219 103.167969l-75.503906 34.335937zm59.289062-230.925781h19.96875c79.777344 131.871094 38.398438 387.542969 29.25 437.335938h-21.925781c25.527344-220.898438 2.179687-356.886719-27.292969-437.335938zm145.996094 437.335938h-21.152344c2.070313-9.386719 4.882813-23.285157 7.742188-41.046875 2.136718-13.621094 3.992187-28.136719 5.621094-43.175782 1.710937-16.335937 2.808593-30.070312 3.449218-43.109374.890625-14.34375 1.296875-28.949219 1.191406-43.335938 0-14.078125-.4375-28.648438-1.300781-43.390625-.980469-14.210937-2.386719-28.804687-4.265625-43.375-1.875-14.570313-4.558594-29.363281-7.609375-43.453125-3.75-17.292969-8.492187-34.363281-14.195312-51.117188h7.566406c72.605469 143.4375 33.039063 314.550782 22.953125 352.003907zm-34.902344-373.335938h-41.226562c-3.277344-11.679687-7.136719-23.1875-11.585938-34.472656 8.425782 8.421875 19.851563 13.148437 31.765625 13.140625 2.253907-.007812 4.503907-.179688 6.730469-.523438 5.074219 7.125 9.84375 14.410157 14.316406 21.855469zm4.359375-64-4.070312 8.152344c-4.039063 8.078125-12.300781 13.179687-21.335938 13.179687-9.03125 0-17.292969-5.101562-21.332031-13.179687l-4.078125-8.152344zm-240.433593 56.03125c-5.136719-.757812-8.945313-5.152343-8.96875-10.347656 0-5.75 4.640624-10.421875 10.398437-10.460937.507813.003906 1.019531.042968 1.523437.117187l41.40625 5.910156v21.121094zm65.691406 302.839844 74.5-33.878906c-1.632813 34.675781-4.675782 72.054687-9.375 112.34375h-65.125zm0 0" data-original="#000000" class="active-path" data-old_color="#000000" fill="#374957"/></g> </svg>
