<?xml version="1.0"?>
<svg xmlns="http://www.w3.org/2000/svg" xmlns:xlink="http://www.w3.org/1999/xlink" version="1.1" id="Capa_1" x="0px" y="0px" width="512px" height="512px" viewBox="0 0 66.05 66.05" style="enable-background:new 0 0 66.05 66.05;" xml:space="preserve" class=""><g><g>
	<g>
		<polygon points="53.42,55.871 53.42,54.06 50.955,54.971 52.933,56.097   " data-original="#000000" class="active-path" data-old_color="#000000" fill="#323232"/>
		<polygon points="17.48,47.501 25.294,52.26 25.294,48.068 17.48,43.309   " data-original="#000000" class="active-path" data-old_color="#000000" fill="#323232"/>
		<polygon points="51.369,47.758 53.164,47.138 53.164,42.946 51.369,43.568   " data-original="#000000" class="active-path" data-old_color="#000000" fill="#323232"/>
		<polygon points="37.389,52.524 49.842,48.208 49.842,44.015 37.389,48.333   " data-original="#000000" class="active-path" data-old_color="#000000" fill="#323232"/>
		<polygon points="16.19,42.523 11.78,39.837 11.78,44.029 16.19,46.713   " data-original="#000000" class="active-path" data-old_color="#000000" fill="#323232"/>
		<polygon points="26.585,48.853 26.585,53.045 29.963,55.1 36.101,52.973 36.101,48.781 29.963,50.908   " data-original="#000000" class="active-path" data-old_color="#000000" fill="#323232"/>
		<polygon points="25.294,42.489 17.48,37.73 17.48,41.923 25.294,46.681   " data-original="#000000" class="active-path" data-old_color="#000000" fill="#323232"/>
		<polygon points="51.369,42.182 53.164,41.56 53.164,37.369 51.369,37.989   " data-original="#000000" class="active-path" data-old_color="#000000" fill="#323232"/>
		<polygon points="37.389,46.948 49.842,42.628 49.842,38.436 37.389,42.755   " data-original="#000000" class="active-path" data-old_color="#000000" fill="#323232"/>
		<polygon points="16.19,36.944 11.78,34.258 11.78,38.451 16.19,41.137   " data-original="#000000" class="active-path" data-old_color="#000000" fill="#323232"/>
		<polygon points="36.101,43.202 29.963,45.329 26.585,43.275 26.585,47.465 29.963,49.521 36.101,47.394   " data-original="#000000" class="active-path" data-old_color="#000000" fill="#323232"/>
		<polygon points="25.294,36.713 17.48,31.955 17.48,36.147 25.294,40.906   " data-original="#000000" class="active-path" data-old_color="#000000" fill="#323232"/>
		<polygon points="51.369,36.405 53.164,35.783 53.164,31.591 51.369,32.213   " data-original="#000000" class="active-path" data-old_color="#000000" fill="#323232"/>
		<polygon points="37.389,41.17 49.842,36.851 49.842,32.661 37.389,36.979   " data-original="#000000" class="active-path" data-old_color="#000000" fill="#323232"/>
		<polygon points="16.19,31.168 11.78,28.481 11.78,32.673 16.19,35.36   " data-original="#000000" class="active-path" data-old_color="#000000" fill="#323232"/>
		<polygon points="36.101,37.424 29.963,39.552 26.585,37.498 26.585,41.69 29.963,43.746 36.101,41.618   " data-original="#000000" class="active-path" data-old_color="#000000" fill="#323232"/>
		<polygon points="25.294,30.997 17.48,26.239 17.48,30.431 25.294,35.188   " data-original="#000000" class="active-path" data-old_color="#000000" fill="#323232"/>
		<polygon points="51.369,30.689 53.164,30.066 53.164,25.875 51.369,26.498   " data-original="#000000" class="active-path" data-old_color="#000000" fill="#323232"/>
		<polygon points="37.389,35.455 49.842,31.136 49.842,26.943 37.389,31.263   " data-original="#000000" class="active-path" data-old_color="#000000" fill="#323232"/>
		<polygon points="16.19,25.452 11.78,22.766 11.78,26.958 16.19,29.644   " data-original="#000000" class="active-path" data-old_color="#000000" fill="#323232"/>
		<polygon points="36.101,31.71 29.963,33.836 26.585,31.782 26.585,35.975 29.963,38.029 36.101,35.902   " data-original="#000000" class="active-path" data-old_color="#000000" fill="#323232"/>
		<polygon points="25.294,25.22 17.48,20.462 17.48,24.654 25.294,29.412   " data-original="#000000" class="active-path" data-old_color="#000000" fill="#323232"/>
		<polygon points="51.369,24.912 53.164,24.29 53.164,20.098 51.369,20.72   " data-original="#000000" class="active-path" data-old_color="#000000" fill="#323232"/>
		<polygon points="37.389,29.677 49.842,25.358 49.842,21.167 37.389,25.486   " data-original="#000000" class="active-path" data-old_color="#000000" fill="#323232"/>
		<polygon points="16.19,19.675 11.78,16.989 11.78,21.182 16.19,23.867   " data-original="#000000" class="active-path" data-old_color="#000000" fill="#323232"/>
		<polygon points="36.101,25.933 29.963,28.06 26.585,26.005 26.585,30.197 29.963,32.252 36.101,30.125   " data-original="#000000" class="active-path" data-old_color="#000000" fill="#323232"/>
		<polygon points="25.294,18.9 17.48,14.142 17.48,18.335 25.294,23.093   " data-original="#000000" class="active-path" data-old_color="#000000" fill="#323232"/>
		<polygon points="53.164,13.779 51.369,14.401 51.369,18.593 53.164,17.971   " data-original="#000000" class="active-path" data-old_color="#000000" fill="#323232"/>
		<polygon points="37.389,23.359 49.842,19.039 49.842,14.847 37.389,19.167   " data-original="#000000" class="active-path" data-old_color="#000000" fill="#323232"/>
		<polygon points="16.19,13.355 11.78,10.67 11.78,14.862 16.19,17.548   " data-original="#000000" class="active-path" data-old_color="#000000" fill="#323232"/>
		<polygon points="36.101,19.613 29.963,21.741 26.585,19.686 26.585,23.877 29.963,25.933 36.101,23.806   " data-original="#000000" class="active-path" data-old_color="#000000" fill="#323232"/>
		<path d="M53.25,11.583V9.327c0-1.067-0.837-2.161-1.87-2.439L35.085,0.222c-0.592-0.241-1.246-0.288-1.866-0.132L13.695,4.987    C12.637,5.129,11.78,6.113,11.78,7.18v1.868l18.199,10.565L53.25,11.583z M28.999,13.618L15.611,6.642    c-0.131-0.067-0.206-0.209-0.189-0.356c0.016-0.146,0.122-0.269,0.265-0.305l17.28-4.466c0.59-0.151,1.215-0.107,1.776,0.129    L48.29,7.348c0.137,0.058,0.225,0.195,0.219,0.343c-0.005,0.148-0.103,0.278-0.245,0.325l-17.361,5.756    C30.273,13.98,29.586,13.924,28.999,13.618z" data-original="#000000" class="active-path" data-old_color="#000000" fill="#323232"/>
		<path d="M35.539,53.975l-5.582,2.122L11.916,45.28v10.216c0.157,0.146,16.445,9.968,16.445,9.968    c0.869,0.621,2.366,0.773,3.342,0.34l7.915-3.028l0.163-4.013l-4.262-2.849L35.539,53.975z M15.512,53.131l-1.207-0.842v-4.191    l1.207,0.806V53.131z M20.226,56.114l-1.21-0.847v-4.188l1.21,0.804V56.114z M25.826,59.741l-1.208-0.847v-4.188l1.208,0.803    V59.741z M33.661,61.049L31.9,61.891v-4.953l1.761-0.684V61.049z" data-original="#000000" class="active-path" data-old_color="#000000" fill="#323232"/>
		<polygon points="51.878,53.798 47.826,49.521 36.489,53.52 41.258,58.333   " data-original="#000000" class="active-path" data-old_color="#000000" fill="#323232"/>
		<polygon points="36.261,55.413 40.828,58.516 36.261,53.99   " data-original="#000000" class="active-path" data-old_color="#000000" fill="#323232"/>
		<polygon points="42.89,61.814 40.419,60.151 40.419,61.924 44.177,64.607 44.177,63.849 42.89,62.861   " data-original="#000000" class="active-path" data-old_color="#000000" fill="#323232"/>
		<polygon points="52.942,58.21 52.942,57.203 49.901,55.47 40.419,59.643 43.356,61.532 43.356,62.72 44.641,63.649 44.641,64.796     54.27,59.799 54.27,58.953   " data-original="#000000" class="active-path" data-old_color="#000000" fill="#323232"/>
		<polygon points="49.842,49.013 48.95,49.323 53.25,53.515 53.25,47.945 51.131,48.567   " data-original="#000000" class="active-path" data-old_color="#000000" fill="#323232"/>
	</g>
</g></g> </svg>
