<?xml version="1.0" encoding="UTF-8"?>
<svg xmlns="http://www.w3.org/2000/svg" xmlns:xlink="http://www.w3.org/1999/xlink" width="17pt" height="17pt" viewBox="0 0 17 17" version="1.1">
<g id="surface1">
<path style=" stroke:none;fill-rule:nonzero;fill:rgb(19.607843%,19.607843%,19.607843%);fill-opacity:1;" d="M 16.734375 11.289062 L 16.734375 2.257812 C 16.734375 2.109375 16.617188 1.992188 16.46875 1.992188 L 14.34375 1.992188 L 14.34375 1.726562 L 14.875 1.726562 C 15.023438 1.726562 15.140625 1.609375 15.140625 1.460938 C 15.140625 1.3125 15.023438 1.195312 14.875 1.195312 L 13.28125 1.195312 C 13.132812 1.195312 13.015625 1.3125 13.015625 1.460938 C 13.015625 1.609375 13.132812 1.726562 13.28125 1.726562 L 13.8125 1.726562 L 13.8125 1.992188 L 10.625 1.992188 L 10.625 1.726562 L 11.15625 1.726562 C 11.304688 1.726562 11.421875 1.609375 11.421875 1.460938 C 11.421875 1.3125 11.304688 1.195312 11.15625 1.195312 L 9.5625 1.195312 C 9.414062 1.195312 9.296875 1.3125 9.296875 1.460938 C 9.296875 1.609375 9.414062 1.726562 9.5625 1.726562 L 10.09375 1.726562 L 10.09375 1.992188 L 6.90625 1.992188 L 6.90625 1.726562 L 7.4375 1.726562 C 7.585938 1.726562 7.703125 1.609375 7.703125 1.460938 C 7.703125 1.3125 7.585938 1.195312 7.4375 1.195312 L 5.84375 1.195312 C 5.695312 1.195312 5.578125 1.3125 5.578125 1.460938 C 5.578125 1.609375 5.695312 1.726562 5.84375 1.726562 L 6.375 1.726562 L 6.375 1.992188 L 3.1875 1.992188 L 3.1875 1.726562 L 3.71875 1.726562 C 3.867188 1.726562 3.984375 1.609375 3.984375 1.460938 C 3.984375 1.3125 3.867188 1.195312 3.71875 1.195312 L 2.125 1.195312 C 1.976562 1.195312 1.859375 1.3125 1.859375 1.460938 C 1.859375 1.609375 1.976562 1.726562 2.125 1.726562 L 2.65625 1.726562 L 2.65625 1.992188 L 0.53125 1.992188 C 0.382812 1.992188 0.265625 2.109375 0.265625 2.257812 L 0.265625 11.289062 C 0.117188 11.289062 0 11.40625 0 11.554688 C 0 11.703125 0.117188 11.820312 0.265625 11.820312 L 7.4375 11.820312 L 7.4375 15.539062 C 7.4375 15.6875 7.554688 15.804688 7.703125 15.804688 C 7.851562 15.804688 7.96875 15.6875 7.96875 15.539062 L 7.96875 11.820312 L 9.03125 11.820312 L 9.03125 15.539062 C 9.03125 15.6875 9.148438 15.804688 9.296875 15.804688 C 9.445312 15.804688 9.5625 15.6875 9.5625 15.539062 L 9.5625 15.007812 C 9.710938 15.007812 9.828125 14.890625 9.828125 14.742188 C 9.828125 14.59375 9.710938 14.476562 9.5625 14.476562 L 9.5625 13.945312 C 9.710938 13.945312 9.828125 13.828125 9.828125 13.679688 C 9.828125 13.53125 9.710938 13.414062 9.5625 13.414062 L 9.5625 12.882812 C 9.710938 12.882812 9.828125 12.765625 9.828125 12.617188 C 9.828125 12.46875 9.710938 12.351562 9.5625 12.351562 L 9.5625 11.820312 L 16.734375 11.820312 C 16.882812 11.820312 17 11.703125 17 11.554688 C 17 11.40625 16.882812 11.289062 16.734375 11.289062 Z M 0.796875 2.523438 L 16.203125 2.523438 L 16.203125 11.289062 L 0.796875 11.289062 Z M 0.796875 2.523438 "/>
<path style=" stroke:none;fill-rule:nonzero;fill:rgb(19.607843%,19.607843%,19.607843%);fill-opacity:1;" d="M 10.09375 5.710938 L 14.875 5.710938 C 15.023438 5.710938 15.140625 5.59375 15.140625 5.445312 C 15.140625 5.296875 15.023438 5.179688 14.875 5.179688 L 10.09375 5.179688 C 9.945312 5.179688 9.828125 5.296875 9.828125 5.445312 C 9.828125 5.59375 9.945312 5.710938 10.09375 5.710938 Z M 10.09375 5.710938 "/>
<path style=" stroke:none;fill-rule:nonzero;fill:rgb(19.607843%,19.607843%,19.607843%);fill-opacity:1;" d="M 10.09375 6.773438 L 14.875 6.773438 C 15.023438 6.773438 15.140625 6.65625 15.140625 6.507812 C 15.140625 6.359375 15.023438 6.242188 14.875 6.242188 L 10.09375 6.242188 C 9.945312 6.242188 9.828125 6.359375 9.828125 6.507812 C 9.828125 6.65625 9.945312 6.773438 10.09375 6.773438 Z M 10.09375 6.773438 "/>
<path style=" stroke:none;fill-rule:nonzero;fill:rgb(19.607843%,19.607843%,19.607843%);fill-opacity:1;" d="M 10.09375 7.835938 L 14.875 7.835938 C 15.023438 7.835938 15.140625 7.71875 15.140625 7.570312 C 15.140625 7.421875 15.023438 7.304688 14.875 7.304688 L 10.09375 7.304688 C 9.945312 7.304688 9.828125 7.421875 9.828125 7.570312 C 9.828125 7.71875 9.945312 7.835938 10.09375 7.835938 Z M 10.09375 7.835938 "/>
<path style=" stroke:none;fill-rule:nonzero;fill:rgb(19.607843%,19.607843%,19.607843%);fill-opacity:1;" d="M 10.09375 8.898438 L 12.484375 8.898438 C 12.632812 8.898438 12.75 8.777344 12.75 8.632812 C 12.75 8.484375 12.632812 8.367188 12.484375 8.367188 L 10.09375 8.367188 C 9.945312 8.367188 9.828125 8.484375 9.828125 8.632812 C 9.828125 8.777344 9.945312 8.898438 10.09375 8.898438 Z M 10.09375 8.898438 "/>
<path style=" stroke:none;fill-rule:nonzero;fill:rgb(19.607843%,19.607843%,19.607843%);fill-opacity:1;" d="M 2.660156 5.710938 C 3.097656 5.710938 3.457031 5.351562 3.457031 4.914062 C 3.457031 4.472656 3.097656 4.117188 2.660156 4.117188 C 2.21875 4.117188 1.863281 4.472656 1.863281 4.914062 C 1.863281 5.351562 2.21875 5.710938 2.660156 5.710938 Z M 2.660156 4.648438 C 2.804688 4.648438 2.925781 4.765625 2.925781 4.914062 C 2.925781 5.058594 2.804688 5.179688 2.660156 5.179688 C 2.511719 5.179688 2.394531 5.058594 2.394531 4.914062 C 2.394531 4.765625 2.511719 4.648438 2.660156 4.648438 Z M 2.660156 4.648438 "/>
<path style=" stroke:none;fill-rule:nonzero;fill:rgb(19.607843%,19.607843%,19.607843%);fill-opacity:1;" d="M 8.5 9.433594 C 8.511719 9.433594 8.519531 9.429688 8.53125 9.425781 C 8.550781 9.425781 8.566406 9.421875 8.585938 9.417969 C 8.601562 9.410156 8.613281 9.40625 8.628906 9.398438 C 8.632812 9.394531 8.640625 9.394531 8.644531 9.390625 C 8.652344 9.386719 8.652344 9.378906 8.660156 9.375 C 8.675781 9.363281 8.691406 9.347656 8.707031 9.328125 C 8.714844 9.320312 8.722656 9.308594 8.730469 9.296875 C 8.738281 9.28125 8.746094 9.261719 8.75 9.246094 C 8.757812 9.226562 8.761719 9.210938 8.761719 9.195312 C 8.761719 9.1875 8.765625 9.175781 8.765625 9.167969 C 8.765625 9.160156 8.761719 9.152344 8.761719 9.144531 C 8.761719 9.128906 8.757812 9.109375 8.75 9.089844 C 8.746094 9.074219 8.742188 9.0625 8.734375 9.046875 C 8.730469 9.039062 8.730469 9.03125 8.726562 9.023438 L 6.335938 5.308594 C 6.332031 5.308594 6.332031 5.308594 6.332031 5.304688 C 6.320312 5.289062 6.308594 5.277344 6.292969 5.265625 C 6.28125 5.253906 6.269531 5.238281 6.257812 5.230469 C 6.257812 5.230469 6.253906 5.230469 6.253906 5.226562 C 6.242188 5.21875 6.230469 5.21875 6.214844 5.214844 C 6.199219 5.207031 6.179688 5.195312 6.160156 5.191406 C 6.144531 5.1875 6.125 5.191406 6.105469 5.191406 C 6.089844 5.191406 6.074219 5.1875 6.058594 5.191406 C 6.039062 5.195312 6.019531 5.207031 6 5.214844 C 5.988281 5.21875 5.976562 5.222656 5.964844 5.226562 C 5.964844 5.230469 5.964844 5.230469 5.964844 5.230469 C 5.949219 5.238281 5.941406 5.253906 5.925781 5.265625 C 5.914062 5.277344 5.898438 5.289062 5.890625 5.304688 C 5.886719 5.304688 5.886719 5.308594 5.886719 5.308594 L 4.644531 7.242188 L 4.074219 6.367188 C 4.074219 6.367188 4.074219 6.367188 4.074219 6.363281 C 4.0625 6.351562 4.050781 6.339844 4.039062 6.328125 C 4.023438 6.316406 4.011719 6.300781 4 6.289062 C 3.996094 6.289062 3.996094 6.289062 3.996094 6.289062 C 3.988281 6.28125 3.976562 6.28125 3.964844 6.277344 C 3.945312 6.265625 3.925781 6.257812 3.902344 6.25 C 3.886719 6.25 3.867188 6.25 3.851562 6.25 C 3.835938 6.25 3.816406 6.25 3.800781 6.25 C 3.78125 6.257812 3.761719 6.265625 3.742188 6.273438 C 3.730469 6.28125 3.71875 6.28125 3.707031 6.289062 C 3.691406 6.300781 3.679688 6.316406 3.667969 6.328125 C 3.65625 6.339844 3.640625 6.351562 3.628906 6.363281 C 3.628906 6.367188 3.628906 6.367188 3.628906 6.367188 L 1.902344 9.023438 C 1.898438 9.03125 1.898438 9.035156 1.894531 9.042969 C 1.886719 9.058594 1.878906 9.074219 1.875 9.09375 C 1.871094 9.109375 1.867188 9.128906 1.863281 9.144531 C 1.863281 9.152344 1.859375 9.160156 1.859375 9.167969 C 1.859375 9.175781 1.863281 9.183594 1.863281 9.195312 C 1.867188 9.210938 1.871094 9.230469 1.875 9.246094 C 1.882812 9.261719 1.886719 9.277344 1.894531 9.292969 C 1.902344 9.308594 1.910156 9.320312 1.921875 9.332031 C 1.933594 9.347656 1.949219 9.359375 1.960938 9.371094 C 1.96875 9.378906 1.972656 9.386719 1.980469 9.390625 C 1.988281 9.394531 2 9.398438 2.007812 9.402344 C 2.015625 9.40625 2.023438 9.410156 2.035156 9.414062 C 2.0625 9.425781 2.09375 9.433594 2.125 9.433594 Z M 4.859375 7.886719 C 4.863281 7.878906 4.867188 7.875 4.871094 7.871094 L 6.109375 5.941406 L 8.015625 8.902344 L 4.207031 8.902344 Z M 3.574219 8.902344 L 2.617188 8.902344 L 3.851562 7 L 4.328125 7.730469 Z M 3.574219 8.902344 "/>
</g>
</svg>
