<?xml version="1.0" encoding="UTF-8"?>
<svg xmlns="http://www.w3.org/2000/svg" xmlns:xlink="http://www.w3.org/1999/xlink" width="17pt" height="17pt" viewBox="0 0 17 17" version="1.1">
<g id="surface1">
<path style=" stroke:none;fill-rule:nonzero;fill:rgb(19.607843%,19.607843%,19.607843%);fill-opacity:1;" d="M 16.003906 1.027344 L 13.679688 1.027344 C 13.679688 0.847656 13.53125 0.695312 13.347656 0.695312 C 13.164062 0.695312 13.015625 0.847656 13.015625 1.027344 L 8.832031 1.027344 C 8.832031 0.847656 8.683594 0.695312 8.5 0.695312 C 8.316406 0.695312 8.167969 0.847656 8.167969 1.027344 L 6.308594 1.027344 C 6.125 1.027344 5.976562 1.179688 5.976562 1.359375 C 5.976562 1.542969 6.125 1.691406 6.308594 1.691406 L 8.167969 1.691406 L 8.167969 2.355469 L 7.835938 2.355469 C 7.652344 2.355469 7.503906 2.507812 7.503906 2.6875 C 7.503906 2.871094 7.652344 3.019531 7.835938 3.019531 L 9.164062 3.019531 C 9.347656 3.019531 9.496094 2.871094 9.496094 2.6875 C 9.496094 2.507812 9.347656 2.355469 9.164062 2.355469 L 8.832031 2.355469 L 8.832031 1.691406 L 13.015625 1.691406 L 13.015625 2.355469 L 12.683594 2.355469 C 12.5 2.355469 12.351562 2.507812 12.351562 2.6875 C 12.351562 2.871094 12.5 3.019531 12.683594 3.019531 L 14.011719 3.019531 C 14.195312 3.019531 14.34375 2.871094 14.34375 2.6875 C 14.34375 2.507812 14.195312 2.355469 14.011719 2.355469 L 13.679688 2.355469 L 13.679688 1.691406 L 16.003906 1.691406 C 16.1875 1.691406 16.335938 1.84375 16.335938 2.023438 L 16.335938 10.988281 L 15.339844 10.988281 C 15.15625 10.988281 15.007812 11.140625 15.007812 11.320312 C 15.007812 11.503906 15.15625 11.652344 15.339844 11.652344 L 16.335938 11.652344 L 16.335938 12.316406 L 0.664062 12.316406 L 0.664062 11.652344 L 12.683594 11.652344 C 12.867188 11.652344 13.015625 11.503906 13.015625 11.320312 C 13.015625 11.140625 12.867188 10.988281 12.683594 10.988281 L 0.664062 10.988281 L 0.664062 2.023438 C 0.664062 1.84375 0.8125 1.691406 0.996094 1.691406 L 3.320312 1.691406 L 3.320312 2.355469 L 2.988281 2.355469 C 2.804688 2.355469 2.65625 2.507812 2.65625 2.6875 C 2.65625 2.871094 2.804688 3.019531 2.988281 3.019531 L 4.316406 3.019531 C 4.5 3.019531 4.648438 2.871094 4.648438 2.6875 C 4.648438 2.507812 4.5 2.355469 4.316406 2.355469 L 3.984375 2.355469 L 3.984375 1.027344 C 3.984375 0.847656 3.835938 0.695312 3.652344 0.695312 C 3.46875 0.695312 3.320312 0.847656 3.320312 1.027344 L 0.996094 1.027344 C 0.445312 1.027344 0 1.476562 0 2.023438 L 0 12.648438 C 0 12.832031 0.148438 12.980469 0.332031 12.980469 L 6.839844 12.980469 L 6.839844 15.96875 C 6.839844 16.152344 6.988281 16.300781 7.171875 16.300781 C 7.355469 16.300781 7.503906 16.152344 7.503906 15.96875 L 7.503906 12.980469 L 9.496094 12.980469 L 9.496094 15.96875 C 9.496094 16.152344 9.644531 16.300781 9.828125 16.300781 C 10.011719 16.300781 10.160156 16.152344 10.160156 15.96875 L 10.160156 12.980469 L 16.667969 12.980469 C 16.851562 12.980469 17 12.832031 17 12.648438 L 17 2.023438 C 17 1.476562 16.554688 1.027344 16.003906 1.027344 Z M 16.003906 1.027344 "/>
<path style=" stroke:none;fill-rule:nonzero;fill:rgb(19.607843%,19.607843%,19.607843%);fill-opacity:1;" d="M 4.980469 1.691406 C 5.164062 1.691406 5.3125 1.542969 5.3125 1.359375 C 5.3125 1.179688 5.164062 1.027344 4.980469 1.027344 C 4.796875 1.027344 4.648438 1.179688 4.648438 1.359375 C 4.648438 1.542969 4.796875 1.691406 4.980469 1.691406 Z M 4.980469 1.691406 "/>
<path style=" stroke:none;fill-rule:nonzero;fill:rgb(19.607843%,19.607843%,19.607843%);fill-opacity:1;" d="M 14.34375 11.320312 C 14.34375 11.140625 14.195312 10.988281 14.011719 10.988281 C 13.828125 10.988281 13.679688 11.140625 13.679688 11.320312 C 13.679688 11.503906 13.828125 11.652344 14.011719 11.652344 C 14.195312 11.652344 14.34375 11.503906 14.34375 11.320312 Z M 14.34375 11.320312 "/>
<path style=" stroke:none;fill-rule:nonzero;fill:rgb(19.607843%,19.607843%,19.607843%);fill-opacity:1;" d="M 7.171875 8.996094 C 7.234375 8.996094 7.292969 8.980469 7.347656 8.949219 L 10.003906 7.289062 C 10.101562 7.226562 10.160156 7.121094 10.160156 7.003906 C 10.160156 6.890625 10.101562 6.785156 10.003906 6.722656 L 7.347656 5.0625 C 7.246094 5 7.117188 4.996094 7.011719 5.054688 C 6.90625 5.113281 6.839844 5.226562 6.839844 5.34375 L 6.839844 8.664062 C 6.839844 8.785156 6.90625 8.898438 7.011719 8.957031 C 7.0625 8.984375 7.117188 8.996094 7.171875 8.996094 Z M 7.503906 5.945312 L 9.203125 7.003906 L 7.503906 8.066406 Z M 7.503906 5.945312 "/>
</g>
</svg>
