<?xml version="1.0" encoding="UTF-8"?>
<svg xmlns="http://www.w3.org/2000/svg" xmlns:xlink="http://www.w3.org/1999/xlink" width="30pt" height="30pt" viewBox="0 0 30 30" version="1.1">
<g id="surface1">
<path style=" stroke:none;fill-rule:nonzero;fill:rgb(21.568627%,28.627451%,34.117647%);fill-opacity:1;" d="M 4.90625 28.109375 C 4.648438 28.109375 4.4375 28.320312 4.4375 28.578125 C 4.4375 28.839844 4.648438 29.046875 4.90625 29.046875 L 24.59375 29.046875 C 24.855469 29.046875 25.0625 28.839844 25.0625 28.578125 C 25.0625 28.320312 24.855469 28.109375 24.59375 28.109375 L 20.996094 28.109375 C 21.566406 25.933594 23.140625 18.417969 19.714844 11.953125 C 19.421875 11.410156 19.097656 10.882812 18.742188 10.375 C 18.996094 10.191406 19.199219 9.949219 19.339844 9.667969 L 19.519531 9.3125 C 19.664062 9.019531 19.648438 8.675781 19.476562 8.398438 C 19.308594 8.121094 19.003906 7.953125 18.679688 7.953125 L 16.679688 7.953125 C 15.28125 6.644531 13.679688 5.566406 11.9375 4.769531 L 11.9375 1.390625 C 11.9375 1.132812 11.726562 0.921875 11.46875 0.921875 C 11.210938 0.921875 11 1.132812 11 1.390625 L 11 4.363281 C 10.914062 4.328125 10.832031 4.289062 10.746094 4.253906 C 10.730469 4.25 10.714844 4.25 10.699219 4.242188 C 10.664062 4.230469 10.628906 4.222656 10.59375 4.214844 C 10.566406 4.210938 10.542969 4.210938 10.515625 4.210938 C 10.460938 4.21875 10.40625 4.230469 10.351562 4.238281 C 10.339844 4.246094 10.328125 4.253906 10.316406 4.257812 C 10.304688 4.265625 10.296875 4.273438 10.285156 4.277344 C 10.246094 4.304688 10.207031 4.335938 10.175781 4.371094 C 10.171875 4.378906 10.164062 4.378906 10.160156 4.386719 C 10.15625 4.390625 10.160156 4.390625 10.15625 4.394531 C 10.121094 4.441406 10.097656 4.492188 10.078125 4.550781 L 10.078125 4.5625 C 10.070312 4.597656 10.0625 4.636719 10.0625 4.671875 L 10.0625 9.757812 L 8.375 9.515625 C 7.882812 9.445312 7.386719 9.644531 7.078125 10.035156 C 6.773438 10.429688 6.695312 10.957031 6.882812 11.417969 C 7.066406 11.882812 7.488281 12.210938 7.980469 12.28125 L 10.0625 12.578125 L 10.0625 28.109375 Z M 11 5.90625 C 11.503906 6.609375 11.929688 7.367188 12.269531 8.160156 L 11 8.667969 Z M 17.695312 12.640625 C 17.910156 13.257812 18.09375 13.882812 18.246094 14.515625 L 17.253906 14.515625 C 17.164062 13.882812 17.050781 13.253906 16.914062 12.640625 Z M 16.722656 28.109375 C 16.785156 27.769531 16.867188 27.296875 16.957031 26.703125 L 18.414062 26.703125 C 18.304688 27.328125 18.203125 27.8125 18.132812 28.109375 Z M 18.460938 15.453125 C 18.523438 15.761719 18.582031 16.074219 18.628906 16.390625 L 17.457031 16.390625 C 17.433594 16.078125 17.40625 15.765625 17.371094 15.453125 Z M 18.789062 23.890625 L 17.308594 23.890625 C 17.339844 23.585938 17.367188 23.277344 17.394531 22.953125 L 18.867188 22.953125 C 18.847656 23.25 18.820312 23.558594 18.789062 23.890625 Z M 18.5625 25.765625 L 17.09375 25.765625 C 17.132812 25.46875 17.171875 25.15625 17.207031 24.828125 L 18.6875 24.828125 C 18.648438 25.148438 18.605469 25.460938 18.5625 25.765625 Z M 18.914062 19.203125 C 18.925781 19.519531 18.9375 19.832031 18.941406 20.140625 L 17.542969 20.140625 C 17.550781 19.832031 17.554688 19.519531 17.554688 19.203125 Z M 17.460938 22.015625 C 17.480469 21.710938 17.496094 21.398438 17.511719 21.078125 L 18.941406 21.078125 C 18.9375 21.390625 18.929688 21.703125 18.914062 22.015625 Z M 17.546875 18.265625 C 17.539062 17.957031 17.527344 17.644531 17.511719 17.328125 L 18.757812 17.328125 C 18.792969 17.644531 18.824219 17.957031 18.851562 18.265625 Z M 13.234375 7.953125 C 12.9375 7.25 12.582031 6.574219 12.171875 5.925781 C 13.273438 6.488281 14.3125 7.167969 15.265625 7.953125 Z M 11 10.296875 L 11 9.679688 L 12.625 9.027344 C 12.835938 9.589844 13.042969 10.21875 13.238281 10.925781 L 11 11.921875 Z M 11 12.945312 L 13.472656 11.847656 C 13.824219 13.410156 14.066406 14.996094 14.1875 16.59375 L 11 18.015625 Z M 11 19.039062 L 14.261719 17.589844 C 14.34375 18.960938 14.367188 20.464844 14.320312 22.125 L 11 23.632812 Z M 13.605469 8.890625 L 14.484375 8.890625 C 17.988281 14.6875 16.171875 25.921875 15.769531 28.109375 L 14.804688 28.109375 C 15.925781 18.402344 14.902344 12.425781 13.605469 8.890625 Z M 20.023438 28.109375 L 19.09375 28.109375 C 19.183594 27.699219 19.308594 27.085938 19.433594 26.304688 C 19.527344 25.707031 19.609375 25.070312 19.679688 24.410156 C 19.753906 23.691406 19.804688 23.085938 19.832031 22.515625 C 19.871094 21.882812 19.886719 21.242188 19.882812 20.609375 C 19.882812 19.992188 19.863281 19.351562 19.828125 18.703125 C 19.785156 18.078125 19.722656 17.4375 19.640625 16.796875 C 19.558594 16.15625 19.4375 15.507812 19.304688 14.886719 C 19.140625 14.128906 18.929688 13.378906 18.679688 12.640625 L 19.011719 12.640625 C 22.203125 18.945312 20.464844 26.464844 20.023438 28.109375 Z M 18.488281 11.703125 L 16.675781 11.703125 C 16.53125 11.191406 16.363281 10.683594 16.167969 10.1875 C 16.539062 10.558594 17.039062 10.765625 17.5625 10.765625 C 17.664062 10.765625 17.761719 10.757812 17.859375 10.742188 C 18.082031 11.058594 18.292969 11.375 18.488281 11.703125 Z M 18.679688 8.890625 L 18.5 9.25 C 18.324219 9.605469 17.960938 9.828125 17.5625 9.828125 C 17.167969 9.828125 16.804688 9.605469 16.625 9.25 L 16.445312 8.890625 Z M 8.113281 11.355469 C 7.886719 11.320312 7.722656 11.128906 7.71875 10.898438 C 7.71875 10.644531 7.921875 10.441406 8.175781 10.4375 C 8.199219 10.441406 8.222656 10.441406 8.242188 10.445312 L 10.0625 10.703125 L 10.0625 11.632812 Z M 11 24.664062 L 14.273438 23.171875 C 14.203125 24.695312 14.070312 26.339844 13.863281 28.109375 L 11 28.109375 Z M 11 24.664062 "/>
</g>
</svg>
