<?xml version="1.0" encoding="UTF-8"?>
<svg xmlns="http://www.w3.org/2000/svg" xmlns:xlink="http://www.w3.org/1999/xlink" width="27pt" height="27pt" viewBox="0 0 27 27" version="1.1">
<g id="surface1">
<path style=" stroke:none;fill-rule:nonzero;fill:rgb(21.568627%,28.627451%,34.117647%);fill-opacity:1;" d="M 4.417969 25.300781 C 4.183594 25.300781 3.996094 25.488281 3.996094 25.722656 C 3.996094 25.953125 4.183594 26.144531 4.417969 26.144531 L 22.136719 26.144531 C 22.367188 26.144531 22.558594 25.953125 22.558594 25.722656 C 22.558594 25.488281 22.367188 25.300781 22.136719 25.300781 L 18.894531 25.300781 C 19.410156 23.34375 20.828125 16.574219 17.746094 10.757812 C 17.480469 10.269531 17.1875 9.792969 16.867188 9.335938 C 17.09375 9.171875 17.277344 8.953125 17.40625 8.703125 L 17.566406 8.378906 C 17.699219 8.117188 17.683594 7.808594 17.53125 7.558594 C 17.375 7.308594 17.105469 7.160156 16.8125 7.160156 L 15.011719 7.160156 C 13.753906 5.980469 12.3125 5.011719 10.746094 4.292969 L 10.746094 1.253906 C 10.746094 1.019531 10.554688 0.832031 10.324219 0.832031 C 10.089844 0.832031 9.902344 1.019531 9.902344 1.253906 L 9.902344 3.925781 C 9.824219 3.894531 9.75 3.859375 9.671875 3.832031 C 9.660156 3.824219 9.644531 3.824219 9.628906 3.820312 C 9.597656 3.808594 9.566406 3.800781 9.535156 3.792969 C 9.511719 3.789062 9.488281 3.789062 9.464844 3.789062 C 9.414062 3.796875 9.363281 3.808594 9.316406 3.816406 C 9.304688 3.820312 9.296875 3.828125 9.285156 3.832031 C 9.277344 3.839844 9.265625 3.84375 9.257812 3.851562 C 9.21875 3.875 9.1875 3.902344 9.160156 3.9375 C 9.15625 3.941406 9.148438 3.941406 9.144531 3.945312 C 9.140625 3.953125 9.144531 3.953125 9.140625 3.953125 C 9.109375 3.996094 9.085938 4.042969 9.070312 4.09375 L 9.070312 4.105469 C 9.0625 4.136719 9.058594 4.171875 9.058594 4.207031 L 9.058594 8.78125 L 7.539062 8.566406 C 7.09375 8.5 6.648438 8.679688 6.371094 9.03125 C 6.09375 9.386719 6.027344 9.859375 6.195312 10.277344 C 6.359375 10.695312 6.738281 10.992188 7.183594 11.054688 L 9.058594 11.320312 L 9.058594 25.300781 Z M 9.902344 5.316406 C 10.351562 5.949219 10.734375 6.628906 11.042969 7.34375 L 9.902344 7.800781 Z M 15.925781 11.378906 C 16.121094 11.929688 16.285156 12.496094 16.421875 13.066406 L 15.527344 13.066406 C 15.449219 12.492188 15.347656 11.929688 15.222656 11.378906 Z M 15.050781 25.300781 C 15.109375 24.992188 15.183594 24.566406 15.261719 24.035156 L 16.574219 24.035156 C 16.472656 24.59375 16.382812 25.03125 16.320312 25.300781 Z M 16.617188 13.910156 C 16.671875 14.1875 16.722656 14.46875 16.765625 14.753906 L 15.710938 14.753906 C 15.691406 14.472656 15.664062 14.191406 15.632812 13.910156 Z M 16.910156 21.503906 L 15.578125 21.503906 C 15.605469 21.230469 15.628906 20.949219 15.65625 20.660156 L 16.980469 20.660156 C 16.960938 20.925781 16.9375 21.203125 16.910156 21.503906 Z M 16.707031 23.191406 L 15.382812 23.191406 C 15.417969 22.921875 15.453125 22.640625 15.488281 22.347656 L 16.816406 22.347656 C 16.78125 22.636719 16.746094 22.917969 16.707031 23.191406 Z M 17.019531 17.285156 C 17.035156 17.566406 17.042969 17.847656 17.046875 18.128906 L 15.789062 18.128906 C 15.792969 17.847656 15.796875 17.566406 15.800781 17.285156 Z M 15.714844 19.816406 C 15.730469 19.539062 15.746094 19.257812 15.757812 18.972656 L 17.046875 18.972656 C 17.042969 19.253906 17.035156 19.535156 17.023438 19.816406 Z M 15.792969 16.441406 C 15.785156 16.160156 15.777344 15.878906 15.761719 15.597656 L 16.882812 15.597656 C 16.914062 15.878906 16.941406 16.160156 16.964844 16.441406 Z M 11.910156 7.160156 C 11.644531 6.527344 11.324219 5.914062 10.957031 5.335938 C 11.949219 5.839844 12.882812 6.449219 13.738281 7.160156 Z M 9.902344 9.269531 L 9.902344 8.710938 L 11.363281 8.125 C 11.554688 8.632812 11.738281 9.199219 11.914062 9.832031 L 9.902344 10.726562 Z M 9.902344 11.652344 L 12.125 10.664062 C 12.441406 12.070312 12.660156 13.496094 12.769531 14.9375 L 9.902344 16.210938 Z M 9.902344 17.136719 L 12.835938 15.832031 C 12.90625 17.066406 12.933594 18.417969 12.886719 19.910156 L 9.902344 21.269531 Z M 12.246094 8.003906 L 13.035156 8.003906 C 16.191406 13.21875 14.554688 23.328125 14.191406 25.300781 L 13.324219 25.300781 C 14.335938 16.5625 13.410156 11.183594 12.246094 8.003906 Z M 18.019531 25.300781 L 17.183594 25.300781 C 17.265625 24.929688 17.375 24.378906 17.488281 23.675781 C 17.574219 23.136719 17.648438 22.5625 17.710938 21.96875 C 17.78125 21.320312 17.824219 20.777344 17.847656 20.261719 C 17.882812 19.695312 17.898438 19.117188 17.894531 18.550781 C 17.894531 17.992188 17.878906 17.417969 17.84375 16.832031 C 17.804688 16.269531 17.75 15.695312 17.675781 15.117188 C 17.601562 14.542969 17.496094 13.957031 17.375 13.398438 C 17.226562 12.714844 17.039062 12.039062 16.8125 11.378906 L 17.113281 11.378906 C 19.984375 17.050781 18.417969 23.816406 18.019531 25.300781 Z M 16.640625 10.535156 L 15.007812 10.535156 C 14.878906 10.070312 14.726562 9.617188 14.550781 9.171875 C 14.882812 9.503906 15.335938 9.691406 15.808594 9.691406 C 15.894531 9.691406 15.984375 9.683594 16.074219 9.667969 C 16.273438 9.949219 16.460938 10.238281 16.640625 10.535156 Z M 16.8125 8.003906 L 16.652344 8.324219 C 16.492188 8.644531 16.164062 8.847656 15.808594 8.847656 C 15.449219 8.847656 15.125 8.644531 14.964844 8.324219 L 14.800781 8.003906 Z M 7.300781 10.21875 C 7.097656 10.1875 6.949219 10.015625 6.949219 9.808594 C 6.949219 9.582031 7.132812 9.398438 7.359375 9.394531 C 7.378906 9.394531 7.398438 9.398438 7.417969 9.398438 L 9.058594 9.632812 L 9.058594 10.46875 Z M 9.902344 22.195312 L 12.847656 20.855469 C 12.78125 22.226562 12.664062 23.707031 12.476562 25.300781 L 9.902344 25.300781 Z M 9.902344 22.195312 "/>
</g>
</svg>
