<?xml version="1.0" encoding="UTF-8"?>
<svg xmlns="http://www.w3.org/2000/svg" xmlns:xlink="http://www.w3.org/1999/xlink" width="17pt" height="17pt" viewBox="0 0 17 17" version="1.1">
<g id="surface1">
<path style=" stroke:none;fill-rule:nonzero;fill:rgb(19.607843%,19.607843%,19.607843%);fill-opacity:1;" d="M 13.75 14.378906 L 13.75 13.914062 L 13.113281 14.148438 L 13.625 14.4375 Z M 13.75 14.378906 "/>
<path style=" stroke:none;fill-rule:nonzero;fill:rgb(19.607843%,19.607843%,19.607843%);fill-opacity:1;" d="M 4.5 12.226562 L 6.511719 13.449219 L 6.511719 12.371094 L 4.5 11.148438 Z M 4.5 12.226562 "/>
<path style=" stroke:none;fill-rule:nonzero;fill:rgb(19.607843%,19.607843%,19.607843%);fill-opacity:1;" d="M 13.222656 12.292969 L 13.683594 12.132812 L 13.683594 11.054688 L 13.222656 11.214844 Z M 13.222656 12.292969 "/>
<path style=" stroke:none;fill-rule:nonzero;fill:rgb(19.607843%,19.607843%,19.607843%);fill-opacity:1;" d="M 9.625 13.519531 L 12.828125 12.40625 L 12.828125 11.328125 L 9.625 12.441406 Z M 9.625 13.519531 "/>
<path style=" stroke:none;fill-rule:nonzero;fill:rgb(19.607843%,19.607843%,19.607843%);fill-opacity:1;" d="M 4.167969 10.945312 L 3.03125 10.253906 L 3.03125 11.332031 L 4.167969 12.023438 Z M 4.167969 10.945312 "/>
<path style=" stroke:none;fill-rule:nonzero;fill:rgb(19.607843%,19.607843%,19.607843%);fill-opacity:1;" d="M 6.84375 12.574219 L 6.84375 13.652344 L 7.710938 14.183594 L 9.292969 13.632812 L 9.292969 12.554688 L 7.710938 13.101562 Z M 6.84375 12.574219 "/>
<path style=" stroke:none;fill-rule:nonzero;fill:rgb(19.607843%,19.607843%,19.607843%);fill-opacity:1;" d="M 6.511719 10.9375 L 4.5 9.710938 L 4.5 10.789062 L 6.511719 12.015625 Z M 6.511719 10.9375 "/>
<path style=" stroke:none;fill-rule:nonzero;fill:rgb(19.607843%,19.607843%,19.607843%);fill-opacity:1;" d="M 13.222656 10.855469 L 13.683594 10.695312 L 13.683594 9.617188 L 13.222656 9.777344 Z M 13.222656 10.855469 "/>
<path style=" stroke:none;fill-rule:nonzero;fill:rgb(19.607843%,19.607843%,19.607843%);fill-opacity:1;" d="M 9.625 12.082031 L 12.828125 10.972656 L 12.828125 9.894531 L 9.625 11.003906 Z M 9.625 12.082031 "/>
<path style=" stroke:none;fill-rule:nonzero;fill:rgb(19.607843%,19.607843%,19.607843%);fill-opacity:1;" d="M 4.167969 9.507812 L 3.03125 8.816406 L 3.03125 9.898438 L 4.167969 10.585938 Z M 4.167969 9.507812 "/>
<path style=" stroke:none;fill-rule:nonzero;fill:rgb(19.607843%,19.607843%,19.607843%);fill-opacity:1;" d="M 9.292969 11.121094 L 7.710938 11.667969 L 6.84375 11.136719 L 6.84375 12.214844 L 7.710938 12.746094 L 9.292969 12.199219 Z M 9.292969 11.121094 "/>
<path style=" stroke:none;fill-rule:nonzero;fill:rgb(19.607843%,19.607843%,19.607843%);fill-opacity:1;" d="M 6.511719 9.449219 L 4.5 8.222656 L 4.5 9.304688 L 6.511719 10.527344 Z M 6.511719 9.449219 "/>
<path style=" stroke:none;fill-rule:nonzero;fill:rgb(19.607843%,19.607843%,19.607843%);fill-opacity:1;" d="M 13.222656 9.371094 L 13.683594 9.210938 L 13.683594 8.132812 L 13.222656 8.289062 Z M 13.222656 9.371094 "/>
<path style=" stroke:none;fill-rule:nonzero;fill:rgb(19.607843%,19.607843%,19.607843%);fill-opacity:1;" d="M 9.625 10.597656 L 12.828125 9.484375 L 12.828125 8.40625 L 9.625 9.519531 Z M 9.625 10.597656 "/>
<path style=" stroke:none;fill-rule:nonzero;fill:rgb(19.607843%,19.607843%,19.607843%);fill-opacity:1;" d="M 4.167969 8.023438 L 3.03125 7.332031 L 3.03125 8.410156 L 4.167969 9.101562 Z M 4.167969 8.023438 "/>
<path style=" stroke:none;fill-rule:nonzero;fill:rgb(19.607843%,19.607843%,19.607843%);fill-opacity:1;" d="M 9.292969 9.632812 L 7.710938 10.179688 L 6.84375 9.652344 L 6.84375 10.730469 L 7.710938 11.257812 L 9.292969 10.710938 Z M 9.292969 9.632812 "/>
<path style=" stroke:none;fill-rule:nonzero;fill:rgb(19.607843%,19.607843%,19.607843%);fill-opacity:1;" d="M 6.511719 7.976562 L 4.5 6.753906 L 4.5 7.832031 L 6.511719 9.058594 Z M 6.511719 7.976562 "/>
<path style=" stroke:none;fill-rule:nonzero;fill:rgb(19.607843%,19.607843%,19.607843%);fill-opacity:1;" d="M 13.222656 7.898438 L 13.683594 7.738281 L 13.683594 6.660156 L 13.222656 6.820312 Z M 13.222656 7.898438 "/>
<path style=" stroke:none;fill-rule:nonzero;fill:rgb(19.607843%,19.607843%,19.607843%);fill-opacity:1;" d="M 9.625 9.125 L 12.828125 8.015625 L 12.828125 6.933594 L 9.625 8.046875 Z M 9.625 9.125 "/>
<path style=" stroke:none;fill-rule:nonzero;fill:rgb(19.607843%,19.607843%,19.607843%);fill-opacity:1;" d="M 4.167969 6.550781 L 3.03125 5.859375 L 3.03125 6.9375 L 4.167969 7.628906 Z M 4.167969 6.550781 "/>
<path style=" stroke:none;fill-rule:nonzero;fill:rgb(19.607843%,19.607843%,19.607843%);fill-opacity:1;" d="M 9.292969 8.160156 L 7.710938 8.707031 L 6.84375 8.179688 L 6.84375 9.257812 L 7.710938 9.789062 L 9.292969 9.242188 Z M 9.292969 8.160156 "/>
<path style=" stroke:none;fill-rule:nonzero;fill:rgb(19.607843%,19.607843%,19.607843%);fill-opacity:1;" d="M 6.511719 6.492188 L 4.5 5.265625 L 4.5 6.34375 L 6.511719 7.570312 Z M 6.511719 6.492188 "/>
<path style=" stroke:none;fill-rule:nonzero;fill:rgb(19.607843%,19.607843%,19.607843%);fill-opacity:1;" d="M 13.222656 6.410156 L 13.683594 6.25 L 13.683594 5.171875 L 13.222656 5.332031 Z M 13.222656 6.410156 "/>
<path style=" stroke:none;fill-rule:nonzero;fill:rgb(19.607843%,19.607843%,19.607843%);fill-opacity:1;" d="M 9.625 7.636719 L 12.828125 6.527344 L 12.828125 5.449219 L 9.625 6.558594 Z M 9.625 7.636719 "/>
<path style=" stroke:none;fill-rule:nonzero;fill:rgb(19.607843%,19.607843%,19.607843%);fill-opacity:1;" d="M 4.167969 5.0625 L 3.03125 4.371094 L 3.03125 5.453125 L 4.167969 6.144531 Z M 4.167969 5.0625 "/>
<path style=" stroke:none;fill-rule:nonzero;fill:rgb(19.607843%,19.607843%,19.607843%);fill-opacity:1;" d="M 9.292969 6.675781 L 7.710938 7.222656 L 6.84375 6.691406 L 6.84375 7.773438 L 7.710938 8.300781 L 9.292969 7.753906 Z M 9.292969 6.675781 "/>
<path style=" stroke:none;fill-rule:nonzero;fill:rgb(19.607843%,19.607843%,19.607843%);fill-opacity:1;" d="M 6.511719 4.863281 L 4.5 3.640625 L 4.5 4.71875 L 6.511719 5.945312 Z M 6.511719 4.863281 "/>
<path style=" stroke:none;fill-rule:nonzero;fill:rgb(19.607843%,19.607843%,19.607843%);fill-opacity:1;" d="M 13.683594 3.546875 L 13.222656 3.707031 L 13.222656 4.785156 L 13.683594 4.625 Z M 13.683594 3.546875 "/>
<path style=" stroke:none;fill-rule:nonzero;fill:rgb(19.607843%,19.607843%,19.607843%);fill-opacity:1;" d="M 9.625 6.011719 L 12.828125 4.898438 L 12.828125 3.820312 L 9.625 4.933594 Z M 9.625 6.011719 "/>
<path style=" stroke:none;fill-rule:nonzero;fill:rgb(19.607843%,19.607843%,19.607843%);fill-opacity:1;" d="M 4.167969 3.4375 L 3.03125 2.746094 L 3.03125 3.824219 L 4.167969 4.515625 Z M 4.167969 3.4375 "/>
<path style=" stroke:none;fill-rule:nonzero;fill:rgb(19.607843%,19.607843%,19.607843%);fill-opacity:1;" d="M 9.292969 5.046875 L 7.710938 5.597656 L 6.84375 5.066406 L 6.84375 6.144531 L 7.710938 6.675781 L 9.292969 6.128906 Z M 9.292969 5.046875 "/>
<path style=" stroke:none;fill-rule:nonzero;fill:rgb(19.607843%,19.607843%,19.607843%);fill-opacity:1;" d="M 13.707031 2.980469 L 13.707031 2.402344 C 13.707031 2.125 13.488281 1.84375 13.222656 1.773438 L 9.03125 0.0585938 C 8.878906 -0.00390625 8.710938 -0.015625 8.550781 0.0234375 L 3.523438 1.285156 C 3.253906 1.320312 3.03125 1.574219 3.03125 1.847656 L 3.03125 2.328125 L 7.714844 5.046875 Z M 7.464844 3.503906 L 4.019531 1.710938 C 3.984375 1.691406 3.964844 1.65625 3.96875 1.617188 C 3.972656 1.582031 4 1.546875 4.039062 1.539062 L 8.484375 0.390625 C 8.636719 0.351562 8.796875 0.363281 8.941406 0.421875 L 12.429688 1.890625 C 12.464844 1.90625 12.488281 1.941406 12.484375 1.980469 C 12.484375 2.019531 12.457031 2.050781 12.421875 2.0625 L 7.953125 3.542969 C 7.792969 3.597656 7.613281 3.582031 7.464844 3.503906 Z M 7.464844 3.503906 "/>
<path style=" stroke:none;fill-rule:nonzero;fill:rgb(19.607843%,19.607843%,19.607843%);fill-opacity:1;" d="M 9.148438 13.890625 L 7.710938 14.4375 L 3.066406 11.652344 L 3.066406 14.285156 C 3.105469 14.320312 7.300781 16.847656 7.300781 16.847656 C 7.523438 17.007812 7.910156 17.046875 8.160156 16.9375 L 10.195312 16.15625 L 10.238281 15.125 L 9.140625 14.390625 Z M 3.992188 13.675781 L 3.683594 13.457031 L 3.683594 12.378906 L 3.992188 12.585938 Z M 5.207031 14.441406 L 4.894531 14.226562 L 4.894531 13.148438 L 5.207031 13.355469 Z M 6.648438 15.375 L 6.335938 15.15625 L 6.335938 14.082031 L 6.648438 14.285156 Z M 8.664062 15.710938 L 8.210938 15.929688 L 8.210938 14.65625 L 8.664062 14.480469 Z M 8.664062 15.710938 "/>
<path style=" stroke:none;fill-rule:nonzero;fill:rgb(19.607843%,19.607843%,19.607843%);fill-opacity:1;" d="M 13.351562 13.847656 L 12.308594 12.746094 L 9.390625 13.773438 L 10.617188 15.015625 Z M 13.351562 13.847656 "/>
<path style=" stroke:none;fill-rule:nonzero;fill:rgb(19.607843%,19.607843%,19.607843%);fill-opacity:1;" d="M 9.332031 14.261719 L 10.507812 15.0625 L 9.332031 13.894531 Z M 9.332031 14.261719 "/>
<path style=" stroke:none;fill-rule:nonzero;fill:rgb(19.607843%,19.607843%,19.607843%);fill-opacity:1;" d="M 11.039062 15.910156 L 10.402344 15.480469 L 10.402344 15.9375 L 11.371094 16.628906 L 11.371094 16.433594 L 11.039062 16.179688 Z M 11.039062 15.910156 "/>
<path style=" stroke:none;fill-rule:nonzero;fill:rgb(19.607843%,19.607843%,19.607843%);fill-opacity:1;" d="M 13.625 14.980469 L 13.625 14.722656 L 12.84375 14.277344 L 10.402344 15.351562 L 11.160156 15.835938 L 11.160156 16.144531 L 11.488281 16.382812 L 11.488281 16.675781 L 13.96875 15.390625 L 13.96875 15.171875 Z M 13.625 14.980469 "/>
<path style=" stroke:none;fill-rule:nonzero;fill:rgb(19.607843%,19.607843%,19.607843%);fill-opacity:1;" d="M 12.828125 12.613281 L 12.597656 12.695312 L 13.707031 13.773438 L 13.707031 12.339844 L 13.160156 12.5 Z M 12.828125 12.613281 "/>
</g>
</svg>
