<?xml version="1.0" encoding="UTF-8"?>
<svg xmlns="http://www.w3.org/2000/svg" xmlns:xlink="http://www.w3.org/1999/xlink" width="17pt" height="17pt" viewBox="0 0 17 17" version="1.1">
<g id="surface1">
<path style=" stroke:none;fill-rule:nonzero;fill:rgb(19.607843%,19.607843%,19.607843%);fill-opacity:1;" d="M 16.148438 13.5 L 14.289062 13.5 C 14.292969 13.480469 14.300781 13.46875 14.300781 13.449219 L 14.300781 11.648438 C 14.300781 11.179688 13.917969 10.800781 13.449219 10.800781 L 11.589844 10.800781 C 11.589844 10.78125 11.601562 10.769531 11.601562 10.75 L 11.601562 8.949219 C 11.601562 8.480469 11.21875 8.101562 10.75 8.101562 L 6.25 8.101562 C 5.78125 8.101562 5.398438 8.480469 5.398438 8.949219 L 5.398438 10.75 C 5.398438 10.769531 5.410156 10.78125 5.410156 10.800781 L 3.550781 10.800781 C 3.082031 10.800781 2.699219 11.179688 2.699219 11.648438 L 2.699219 13.449219 C 2.699219 13.46875 2.710938 13.484375 2.710938 13.5 L 0.851562 13.5 C 0.378906 13.5 0 13.878906 0 14.351562 L 0 16.148438 C 0 16.621094 0.378906 17 0.851562 17 L 16.148438 17 C 16.621094 17 17 16.621094 17 16.148438 L 17 14.351562 C 17 13.878906 16.621094 13.5 16.148438 13.5 Z M 13.449219 11.648438 L 13.449219 13.449219 L 8.949219 13.449219 L 8.949219 11.648438 Z M 6.25 8.949219 L 10.75 8.949219 L 10.75 10.75 L 6.25 10.75 Z M 3.550781 11.648438 L 8.050781 11.648438 L 8.050781 13.449219 L 3.550781 13.449219 Z M 5.351562 16.148438 L 0.851562 16.148438 L 0.851562 14.351562 L 5.351562 14.351562 Z M 10.75 16.148438 L 6.25 16.148438 L 6.25 14.351562 L 10.75 14.351562 Z M 16.148438 16.148438 L 11.648438 16.148438 L 11.648438 14.351562 L 16.148438 14.351562 Z M 16.148438 16.148438 "/>
<path style=" stroke:none;fill-rule:nonzero;fill:rgb(19.607843%,19.607843%,19.607843%);fill-opacity:1;" d="M 11.96875 0.25 C 11.726562 0.0078125 11.363281 -0.0664062 11.046875 0.0625 L 5.9375 2.167969 C 5.832031 2.210938 5.738281 2.273438 5.660156 2.351562 C 5.542969 2.46875 5.460938 2.621094 5.425781 2.789062 C 5.371094 3.066406 5.457031 3.355469 5.660156 3.554688 L 6.859375 4.757812 L 6.410156 5.207031 L 4.515625 4.9375 C 4.382812 4.917969 4.25 4.964844 4.15625 5.058594 L 3.554688 5.660156 C 3.222656 5.328125 2.683594 5.328125 2.351562 5.660156 L 0.25 7.761719 C -0.0820312 8.09375 -0.0820312 8.632812 0.25 8.964844 L 0.851562 9.566406 C 1.183594 9.898438 1.71875 9.898438 2.050781 9.566406 L 4.15625 7.460938 C 4.488281 7.128906 4.488281 6.589844 4.15625 6.257812 L 4.605469 5.808594 L 6.5 6.078125 C 6.632812 6.097656 6.765625 6.054688 6.859375 5.957031 L 7.460938 5.359375 L 8.664062 6.558594 C 8.863281 6.761719 9.152344 6.847656 9.433594 6.792969 C 9.597656 6.757812 9.75 6.675781 9.867188 6.558594 C 9.945312 6.480469 10.007812 6.386719 10.050781 6.28125 L 12.15625 1.171875 C 12.285156 0.855469 12.210938 0.492188 11.96875 0.25 Z M 1.453125 8.964844 L 0.851562 8.363281 L 2.953125 6.257812 L 3.554688 6.859375 Z M 9.265625 5.957031 L 8.0625 4.757812 L 8.964844 3.855469 C 9.128906 3.6875 9.128906 3.421875 8.964844 3.253906 C 8.796875 3.089844 8.527344 3.089844 8.363281 3.253906 L 7.460938 4.15625 L 6.257812 2.953125 L 11.367188 0.851562 Z M 9.265625 5.957031 "/>
</g>
</svg>
